# xmcd
# 
# Track frame offsets:
#     150
#     27765
#     51637
#     76042
#     135280
#     161965
#     188882
#     214750
#     241932
#     275040
#     299405
#     318455
# 
# Disc length: 4485
# 
# Revision: 13
# Processed by: cddbd v1.5.2PL0 Copyright (c) Steve Scherf et al.
# Submitted via: fre:ac v1.1beta1pre2
# 
DISCID=b011830c
DTITLE=長渕剛 - Best 〜空〜 2
DYEAR=2002
DGENRE=J-Pop
TTITLE0=とんぼ
TTITLE1=Myself
TTITLE2=親知らず
TTITLE3=Captain of the Ship
TTITLE4=12色のクレパス
TTITLE5=三羽ガラス
TTITLE6=何故
TTITLE7=猿一匹、唄えば侍
TTITLE8=ふるさと
TTITLE9=素顔
TTITLE10=HOLD YOUR LAST CHANCE 2001
TTITLE11=空/SORA
EXTD=YEAR: 2002
EXTT0=
EXTT1=
EXTT2=
EXTT3=
EXTT4=
EXTT5=
EXTT6=
EXTT7=
EXTT8=
EXTT9=
EXTT10=
EXTT11=
PLAYORDER=
